<?xml version="1.0" encoding="iso-8859-1"?>
<!-- Generator: Adobe Illustrator 19.0.0, SVG Export Plug-In . SVG Version: 6.00 Build 0)  -->
<svg version="1.1" id="Capa_1" xmlns="http://www.w3.org/2000/svg" xmlns:xlink="http://www.w3.org/1999/xlink" x="0px" y="0px"
	 viewBox="0 0 330.8 330.8" style="enable-background:new 0 0 330.8 330.8;" xml:space="preserve">
<g>
	<g>
		<path d="M253.4,95.2h-14h-2c-1.6-12.4-6.8-23.6-15.2-32c-6.8-6.8-15.6-11.6-25.2-14v-18c0-8.8-3.6-16.4-9.2-22
			c-5.6-5.6-13.6-9.2-22-9.2c-8.8,0-16.4,3.6-22,9.2l-0.4,0.4c-5.6,5.6-8.8,13.2-8.8,21.6v17.6c-10.4,2.4-19.2,7.2-26,14.4
			c-8.4,8.4-13.6,19.6-15.2,32h-2h-14c-3.6,0-6.4,2.8-6.4,6.4s2.8,6.4,6.4,6.4h8.4l17.6,202.8c0.4,5.6,2.8,10.4,6.4,14
			c3.6,3.6,8.4,6,14,6h82.8c5.6,0,10.4-2.4,14-6c3.6-3.6,6-8.8,6.4-14L244.6,108h8.8c3.6,0,6.4-2.8,6.4-6.4S257,95.2,253.4,95.2z
			 M146.6,30.8c0-5.2,2-9.6,5.2-13.2c0,0,0,0,0.4-0.4c3.6-3.6,8-5.6,13.2-5.6s10,2,13.2,5.6c3.6,3.6,5.6,8,5.6,13.2v16.4h-0.4h-37.2
			V30.8z M117.4,71.6c7.6-7.6,18-12.4,29.2-12.4h37.2c11.6,0,22,4.8,29.2,12.4c6.4,6.4,10.8,14.4,12,23.2H105.8
			C107,86,111.4,77.6,117.4,71.6z M215,309.2c-0.4,2.4-1.2,4.8-2.8,6.4c-1.2,1.2-3.2,2.4-5.2,2.4h-83.2c-2,0-4-0.8-5.2-2.4
			c-1.6-1.6-2.8-4-2.8-6.4l-14.4-166.4h128.4L215,309.2z M230.6,130H100.2l-2-22.8H99h132.8h0.8L230.6,130z"/>
	</g>
</g>
<g>
</g>
<g>
</g>
<g>
</g>
<g>
</g>
<g>
</g>
<g>
</g>
<g>
</g>
<g>
</g>
<g>
</g>
<g>
</g>
<g>
</g>
<g>
</g>
<g>
</g>
<g>
</g>
<g>
</g>
</svg>
